subject10_loaded_free_trial03_ground_reaction
version=1
nRows=61
nColumns=19
inDegrees=no
endheader
time	ground_force_r_vx	ground_force_r_vy	ground_force_r_vz	ground_force_r_px	ground_force_r_py	ground_force_r_pz	ground_torque_r_x	ground_torque_r_y	ground_torque_r_z	ground_force_l_vx	ground_force_l_vy	ground_force_l_vz	ground_force_l_px	ground_force_l_py	ground_force_l_pz	ground_torque_l_x	ground_torque_l_y	ground_torque_l_z
0.000000	0.000000	0.000000	0.000000	-236.590265	0.000000	413.158344	0.000000	0.000000	0.000000	0.000000	0.000000	0.000000	295.083903	0.000000	40.833617	0.000000	0.000000	0.000000
0.000500	0.000000	0.000000	0.000000	-236.188826	0.000000	412.459153	0.000000	0.000000	0.000000	0.000000	0.000000	0.000000	293.909523	0.000000	40.680721	0.000000	0.000000	0.000000
0.001000	0.000000	0.000000	0.000000	-235.787839	0.000000	411.760751	0.000000	0.000000	0.000000	0.000000	0.000000	0.000000	292.738262	0.000000	40.528200	0.000000	0.000000	0.000000
0.001500	0.000000	0.000000	0.000000	-235.387305	0.000000	411.063137	0.000000	0.000000	0.000000	0.000000	0.000000	0.000000	291.570116	0.000000	40.376053	0.000000	0.000000	0.000000
0.002000	0.000000	0.000000	0.000000	-234.987223	0.000000	410.366312	0.000000	0.000000	0.000000	0.000000	0.000000	0.000000	290.405080	0.000000	40.224280	0.000000	0.000000	0.000000
0.002500	0.000000	0.000000	0.000000	-234.587594	0.000000	409.670274	0.000000	0.000000	0.000000	0.000000	0.000000	0.000000	289.243150	0.000000	40.072880	0.000000	0.000000	0.000000
0.003000	0.000000	0.000000	0.000000	-234.188416	0.000000	408.975024	0.000000	0.000000	0.000000	0.000000	0.000000	0.000000	288.084323	0.000000	39.921853	0.000000	0.000000	0.000000
0.003500	0.000000	0.000000	0.000000	-233.789689	0.000000	408.280561	0.000000	0.000000	0.000000	0.000000	0.000000	0.000000	286.928593	0.000000	39.771198	0.000000	0.000000	0.000000
0.004000	0.000000	0.000000	0.000000	-233.391414	0.000000	407.586884	0.000000	0.000000	0.000000	0.000000	0.000000	0.000000	285.775958	0.000000	39.620916	0.000000	0.000000	0.000000
0.004500	0.000000	0.000000	0.000000	-232.993590	0.000000	406.893993	0.000000	0.000000	0.000000	0.000000	0.000000	0.000000	284.626412	0.000000	39.471005	0.000000	0.000000	0.000000
0.005000	0.000000	0.000000	0.000000	-232.596218	0.000000	406.201888	0.000000	0.000000	0.000000	0.000000	0.000000	0.000000	283.479952	0.000000	39.321464	0.000000	0.000000	0.000000
0.005500	0.000000	0.000000	0.000000	-232.199295	0.000000	405.510568	0.000000	0.000000	0.000000	0.000000	0.000000	0.000000	282.336574	0.000000	39.172295	0.000000	0.000000	0.000000
0.006000	0.000000	0.000000	0.000000	-231.802823	0.000000	404.820032	0.000000	0.000000	0.000000	0.000000	0.000000	0.000000	281.196272	0.000000	39.023495	0.000000	0.000000	0.000000
0.006500	0.000000	0.000000	0.000000	-231.406801	0.000000	404.130281	0.000000	0.000000	0.000000	0.000000	0.000000	0.000000	280.059044	0.000000	38.875065	0.000000	0.000000	0.000000
0.007000	0.000000	0.000000	0.000000	-231.011228	0.000000	403.441314	0.000000	0.000000	0.000000	0.000000	0.000000	0.000000	278.924885	0.000000	38.727005	0.000000	0.000000	0.000000
0.007500	0.000000	0.000000	0.000000	-230.616105	0.000000	402.753129	0.000000	0.000000	0.000000	0.000000	0.000000	0.000000	277.793791	0.000000	38.579313	0.000000	0.000000	0.000000
0.008000	0.000000	0.000000	0.000000	-230.221432	0.000000	402.065728	0.000000	0.000000	0.000000	0.000000	0.000000	0.000000	276.665758	0.000000	38.431989	0.000000	0.000000	0.000000
0.008500	0.000000	0.000000	0.000000	-229.827207	0.000000	401.379109	0.000000	0.000000	0.000000	0.000000	0.000000	0.000000	275.540781	0.000000	38.285034	0.000000	0.000000	0.000000
0.009000	0.000000	0.000000	0.000000	-229.433431	0.000000	400.693273	0.000000	0.000000	0.000000	0.000000	0.000000	0.000000	274.418857	0.000000	38.138445	0.000000	0.000000	0.000000
0.009500	0.000000	0.000000	0.000000	-229.040104	0.000000	400.008217	0.000000	0.000000	0.000000	0.000000	0.000000	0.000000	273.299981	0.000000	37.992224	0.000000	0.000000	0.000000
0.010000	0.000000	0.000000	0.000000	-228.647225	0.000000	399.323943	0.000000	0.000000	0.000000	0.000000	0.000000	0.000000	272.184149	0.000000	37.846369	0.000000	0.000000	0.000000
0.010500	0.000000	0.000000	0.000000	-228.254794	0.000000	398.640449	0.000000	0.000000	0.000000	0.000000	0.000000	0.000000	271.071357	0.000000	37.700880	0.000000	0.000000	0.000000
0.011000	0.000000	0.000000	0.000000	-227.862811	0.000000	397.957736	0.000000	0.000000	0.000000	0.000000	0.000000	0.000000	269.961602	0.000000	37.555757	0.000000	0.000000	0.000000
0.011500	0.000000	0.000000	0.000000	-227.471275	0.000000	397.275803	0.000000	0.000000	0.000000	0.000000	0.000000	0.000000	268.854878	0.000000	37.410999	0.000000	0.000000	0.000000
0.012000	0.000000	0.000000	0.000000	-227.080186	0.000000	396.594648	0.000000	0.000000	0.000000	0.000000	0.000000	0.000000	267.751181	0.000000	37.266606	0.000000	0.000000	0.000000
0.012500	0.000000	0.000000	0.000000	-226.689545	0.000000	395.914273	0.000000	0.000000	0.000000	0.000000	0.000000	0.000000	266.650508	0.000000	37.122577	0.000000	0.000000	0.000000
0.013000	0.000000	0.000000	0.000000	-226.299350	0.000000	395.234676	0.000000	0.000000	0.000000	0.000000	0.000000	0.000000	265.552855	0.000000	36.978912	0.000000	0.000000	0.000000
0.013500	0.000000	0.000000	0.000000	-225.909601	0.000000	394.555857	0.000000	0.000000	0.000000	0.000000	0.000000	0.000000	264.458217	0.000000	36.835610	0.000000	0.000000	0.000000
0.014000	0.000000	0.000000	0.000000	-225.520299	0.000000	393.877816	0.000000	0.000000	0.000000	0.000000	0.000000	0.000000	263.366589	0.000000	36.692671	0.000000	0.000000	0.000000
0.014500	0.000000	0.000000	0.000000	-225.131442	0.000000	393.200551	0.000000	0.000000	0.000000	0.000000	0.000000	0.000000	262.277969	0.000000	36.550095	0.000000	0.000000	0.000000
0.015000	0.000000	0.000000	0.000000	-224.743032	0.000000	392.524063	0.000000	0.000000	0.000000	0.000000	0.000000	0.000000	261.192352	0.000000	36.407880	0.000000	0.000000	0.000000
0.015500	0.000000	0.000000	0.000000	-224.355067	0.000000	391.848352	0.000000	0.000000	0.000000	0.000000	0.000000	0.000000	260.109733	0.000000	36.266027	0.000000	0.000000	0.000000
0.016000	0.000000	0.000000	0.000000	-223.967547	0.000000	391.173416	0.000000	0.000000	0.000000	0.000000	0.000000	0.000000	259.030108	0.000000	36.124535	0.000000	0.000000	0.000000
0.016500	0.000000	0.000000	0.000000	-223.580472	0.000000	390.499256	0.000000	0.000000	0.000000	0.000000	0.000000	0.000000	257.953474	0.000000	35.983404	0.000000	0.000000	0.000000
0.017000	0.000000	0.000000	0.000000	-223.193841	0.000000	389.825870	0.000000	0.000000	0.000000	0.000000	0.000000	0.000000	256.879827	0.000000	35.842633	0.000000	0.000000	0.000000
0.017500	0.000000	0.000000	0.000000	-222.807655	0.000000	389.153259	0.000000	0.000000	0.000000	0.000000	0.000000	0.000000	255.809161	0.000000	35.702222	0.000000	0.000000	0.000000
0.018000	0.000000	0.000000	0.000000	-222.421913	0.000000	388.481422	0.000000	0.000000	0.000000	0.000000	0.000000	0.000000	254.741473	0.000000	35.562170	0.000000	0.000000	0.000000
0.018500	0.000000	0.000000	0.000000	-222.036616	0.000000	387.810358	0.000000	0.000000	0.000000	0.000000	0.000000	0.000000	253.676759	0.000000	35.422476	0.000000	0.000000	0.000000
0.019000	0.000000	0.000000	0.000000	-221.651761	0.000000	387.140067	0.000000	0.000000	0.000000	0.000000	0.000000	0.000000	252.615015	0.000000	35.283142	0.000000	0.000000	0.000000
0.019500	0.000000	0.000000	0.000000	-221.267350	0.000000	386.470549	0.000000	0.000000	0.000000	0.000000	0.000000	0.000000	251.556236	0.000000	35.144165	0.000000	0.000000	0.000000
0.020000	0.000000	0.000000	0.000000	-220.883383	0.000000	385.801804	0.000000	0.000000	0.000000	0.000000	0.000000	0.000000	250.500418	0.000000	35.005545	0.000000	0.000000	0.000000
0.020500	0.000000	0.000000	0.000000	-220.499858	0.000000	385.133830	0.000000	0.000000	0.000000	0.000000	0.000000	0.000000	249.447558	0.000000	34.867283	0.000000	0.000000	0.000000
0.021000	0.000000	0.000000	0.000000	-220.116775	0.000000	384.466627	0.000000	0.000000	0.000000	0.000000	0.000000	0.000000	248.397651	0.000000	34.729377	0.000000	0.000000	0.000000
0.021500	0.000000	0.000000	0.000000	-219.734136	0.000000	383.800195	0.000000	0.000000	0.000000	0.000000	0.000000	0.000000	247.350693	0.000000	34.591828	0.000000	0.000000	0.000000
0.022000	0.000000	0.000000	0.000000	-219.351938	0.000000	383.134533	0.000000	0.000000	0.000000	0.000000	0.000000	0.000000	246.306680	0.000000	34.454634	0.000000	0.000000	0.000000
0.022500	0.000000	0.000000	0.000000	-218.970182	0.000000	382.469642	0.000000	0.000000	0.000000	0.000000	0.000000	0.000000	245.265607	0.000000	34.317795	0.000000	0.000000	0.000000
0.023000	0.000000	0.000000	0.000000	-218.588868	0.000000	381.805520	0.000000	0.000000	0.000000	0.000000	0.000000	0.000000	244.227471	0.000000	34.181311	0.000000	0.000000	0.000000
0.023500	0.000000	0.000000	0.000000	-218.207994	0.000000	381.142167	0.000000	0.000000	0.000000	0.000000	0.000000	0.000000	243.192267	0.000000	34.045182	0.000000	0.000000	0.000000
0.024000	0.000000	0.000000	0.000000	-217.827563	0.000000	380.479583	0.000000	0.000000	0.000000	0.000000	0.000000	0.000000	242.159991	0.000000	33.909406	0.000000	0.000000	0.000000
0.024500	0.000000	0.000000	0.000000	-217.447572	0.000000	379.817766	0.000000	0.000000	0.000000	0.000000	0.000000	0.000000	241.130640	0.000000	33.773983	0.000000	0.000000	0.000000
0.025000	0.000000	0.000000	0.000000	-217.068021	0.000000	379.156718	0.000000	0.000000	0.000000	0.000000	0.000000	0.000000	240.104208	0.000000	33.638914	0.000000	0.000000	0.000000
0.025500	0.000000	0.000000	0.000000	-216.688911	0.000000	378.496437	0.000000	0.000000	0.000000	0.000000	0.000000	0.000000	239.080693	0.000000	33.504197	0.000000	0.000000	0.000000
0.026000	0.000000	0.000000	0.000000	-216.310241	0.000000	377.836923	0.000000	0.000000	0.000000	0.000000	0.000000	0.000000	238.060089	0.000000	33.369833	0.000000	0.000000	0.000000
0.026500	0.000000	0.000000	0.000000	-215.932011	0.000000	377.178175	0.000000	0.000000	0.000000	0.000000	0.000000	0.000000	237.042392	0.000000	33.235819	0.000000	0.000000	0.000000
0.027000	0.000000	0.000000	0.000000	-215.554220	0.000000	376.520193	0.000000	0.000000	0.000000	0.000000	0.000000	0.000000	236.027599	0.000000	33.102157	0.000000	0.000000	0.000000
0.027500	0.000000	0.000000	0.000000	-215.176869	0.000000	375.862976	0.000000	0.000000	0.000000	0.000000	0.000000	0.000000	235.015705	0.000000	32.968846	0.000000	0.000000	0.000000
0.028000	0.000000	0.000000	0.000000	-214.799956	0.000000	375.206525	0.000000	0.000000	0.000000	0.000000	0.000000	0.000000	234.006707	0.000000	32.835885	0.000000	0.000000	0.000000
0.028500	0.000000	0.000000	0.000000	-214.423483	0.000000	374.550838	0.000000	0.000000	0.000000	0.000000	0.000000	0.000000	233.000599	0.000000	32.703274	0.000000	0.000000	0.000000
0.029000	0.000000	0.000000	0.000000	-214.047448	0.000000	373.895915	0.000000	0.000000	0.000000	0.000000	0.000000	0.000000	231.997378	0.000000	32.571012	0.000000	0.000000	0.000000
0.029500	0.000000	0.000000	0.000000	-213.671851	0.000000	373.241757	0.000000	0.000000	0.000000	0.000000	0.000000	0.000000	230.997040	0.000000	32.439099	0.000000	0.000000	0.000000
0.030000	0.000000	0.000000	0.000000	-213.296693	0.000000	372.588361	0.000000	0.000000	0.000000	0.000000	0.000000	0.000000	229.999580	0.000000	32.307535	0.000000	0.000000	0.000000
